<svg width="815" height="722" viewBox="0 0 815 722" fill="none" xmlns="http://www.w3.org/2000/svg">
<mask id="path-1-inside-1_65_171" fill="white">
<path fill-rule="evenodd" clip-rule="evenodd" d="M0 0L0 659C0 693.794 28.2061 722 63 722H483C517.794 722 546 693.794 546 659V517C546 482.206 574.206 454 609 454H752C786.794 454 815 425.794 815 391V0H0Z"/>
</mask>
<path fill-rule="evenodd" clip-rule="evenodd" d="M0 0L0 659C0 693.794 28.2061 722 63 722H483C517.794 722 546 693.794 546 659V517C546 482.206 574.206 454 609 454H752C786.794 454 815 425.794 815 391V0H0Z" fill="#D9D9D9"/>
<path d="M0 0V-1H-1L-1 0L0 0ZM815 0H816V-1H815V0ZM-1 0L-1 659H1L1 0L-1 0ZM-1 659C-1 694.346 27.6538 723 63 723V721C28.7584 721 1 693.242 1 659H-1ZM63 723H483V721H63V723ZM483 723C518.346 723 547 694.346 547 659H545C545 693.242 517.242 721 483 721V723ZM547 659V517H545V659H547ZM547 517C547 482.758 574.758 455 609 455V453C573.654 453 545 481.654 545 517H547ZM609 455H752V453H609V455ZM752 455C787.346 455 816 426.346 816 391H814C814 425.242 786.242 453 752 453V455ZM816 391V0H814V391H816ZM815 -1H0V1H815V-1Z" fill="black" mask="url(#path-1-inside-1_65_171)"/>
</svg>
