<svg width="64" height="64" viewBox="0 0 64 64" fill="none" xmlns="http://www.w3.org/2000/svg">
<g clip-path="url(#clip0_6_394)">
<path d="M23.2433 11.3068C23.2433 10.0416 24.2691 9.01584 25.5344 9.01584H35.8439C37.1092 9.01584 38.1349 10.0416 38.1349 11.3068V15.8888C38.1349 17.1541 37.1092 18.1799 35.8439 18.1799H25.5344C24.2691 18.1799 23.2433 17.1541 23.2433 15.8888V11.3068Z" stroke="#435DD1" stroke-width="3"/>
<path d="M39.2804 4.43383C39.2804 3.16854 40.3061 2.14282 41.5714 2.14282H58.7539C60.0192 2.14282 61.0449 3.16854 61.0449 4.43383V15.8888C61.0449 17.1541 60.0192 18.1799 58.7539 18.1799H41.5714C40.3061 18.1799 39.2804 17.1541 39.2804 15.8888V4.43383Z" stroke="#435DD1" stroke-width="3"/>
<path d="M0.333313 9.87499C0.333313 10.9815 1.23139 11.8796 2.33794 11.8796H8.51821L12.3611 56.1549C12.3611 56.1579 12.3611 56.1599 12.3611 56.1619C12.3611 60.4999 16.0145 64 20.3756 64C24.1032 64 27.2404 61.4381 28.1335 57.9861H36.6802C37.5743 61.4381 40.7065 64 44.4342 64C48.8554 64 52.4527 60.4027 52.4527 55.9815C52.4527 51.5602 48.8554 47.9629 44.4342 47.9629C40.7055 47.9629 37.5733 50.5249 36.6802 53.9768H28.1335C27.2394 50.5249 24.1072 47.9629 20.3796 47.9629C18.6797 47.9629 17.104 48.4982 15.806 49.4043L15.2437 42.9393C15.2848 42.9413 15.3239 42.9514 15.366 42.9514C15.3991 42.9514 15.4322 42.9504 15.4663 42.9494L56.5612 40.9447C57.4181 40.9026 58.1548 40.3183 58.3904 39.4934L64.4043 18.4448C64.5777 17.8394 64.4564 17.1889 64.0775 16.6867C63.6986 16.1846 63.1063 15.8889 62.4768 15.8889H12.8913L12.3531 9.70159C12.2629 8.6652 11.3959 7.87036 10.3565 7.87036H2.33794C1.23139 7.87036 0.333313 8.76844 0.333313 9.87499ZM44.4352 51.9722C46.6463 51.9722 48.4444 53.7703 48.4444 55.9815C48.4444 58.1926 46.6463 59.9907 44.4352 59.9907C42.224 59.9907 40.4259 58.1926 40.4259 55.9815C40.4259 53.7703 42.224 51.9722 44.4352 51.9722ZM20.3796 51.9722C22.5907 51.9722 24.3889 53.7703 24.3889 55.9815C24.3889 58.1926 22.5907 59.9907 20.3796 59.9907C18.1685 59.9907 16.3703 58.1926 16.3703 55.9815C16.3703 53.7703 18.1685 51.9722 20.3796 51.9722ZM59.8197 19.8981L54.9304 37.0096L15.2708 38.9441C15.1435 38.9501 15.0212 38.9712 14.902 39.0002L13.2401 19.8981H59.8197Z" fill="black"/>
</g>
<defs>
<clipPath id="clip0_6_394">
<rect width="64" height="64" fill="white"/>
</clipPath>
</defs>
</svg>
