<svg width="64" height="64" viewBox="0 0 64 64" fill="none" xmlns="http://www.w3.org/2000/svg">
<g clip-path="url(#clip0_6_399)">
<path d="M2 40H8.559L9.712 43.46L4.586 48.586C3.805 49.367 3.805 50.633 4.586 51.414L12.586 59.414C13.366 60.195 14.634 60.195 15.414 59.414L20.54 54.288L24 55.441V62C24 63.104 24.896 64 26 64H38C39.104 64 40 63.104 40 62V55.441L43.46 54.288L48.586 59.414C49.366 60.195 50.634 60.195 51.414 59.414L59.414 51.414C60.195 50.633 60.195 49.367 59.414 48.586L54.288 43.46L55.441 40H62C63.104 40 64 39.104 64 38V26C64 24.896 63.104 24 62 24H55.441L54.288 20.54L59.414 15.414C60.195 14.633 60.195 13.367 59.414 12.586L51.414 4.586C50.634 3.805 49.366 3.805 48.586 4.586L43.46 9.712L40 8.559V2C40 0.896 39.104 0 38 0H26C24.896 0 24 0.896 24 2V8.559L20.54 9.712L15.414 4.586C14.634 3.805 13.366 3.805 12.586 4.586L4.586 12.586C3.805 13.367 3.805 14.633 4.586 15.414L9.712 20.54L8.559 24H2C0.896 24 0 24.896 0 26V38C0 39.104 0.896 40 2 40ZM4 28H10C10.861 28 11.625 27.449 11.897 26.632L13.897 20.632C14.136 19.913 13.949 19.121 13.414 18.586L8.829 14L14 8.829L18.586 13.414C19.121 13.95 19.914 14.136 20.632 13.897L26.632 11.897C27.449 11.625 28 10.861 28 10V4H36V10C36 10.861 36.551 11.625 37.368 11.897L43.368 13.897C44.088 14.137 44.879 13.95 45.414 13.414L50 8.829L55.171 14L50.586 18.586C50.05 19.122 49.863 19.914 50.103 20.632L52.103 26.632C52.375 27.449 53.139 28 54 28H60V36H54C53.139 36 52.375 36.551 52.103 37.368L50.103 43.368C49.864 44.087 50.051 44.879 50.586 45.414L55.171 50L50 55.171L45.414 50.586C44.878 50.05 44.086 49.862 43.368 50.103L37.368 52.103C36.551 52.375 36 53.139 36 54V60H28V54C28 53.139 27.449 52.375 26.632 52.103L20.632 50.103C19.915 49.864 19.121 50.051 18.586 50.586L14 55.171L8.829 50L13.414 45.414C13.95 44.878 14.137 44.086 13.897 43.368L11.897 37.368C11.625 36.551 10.861 36 10 36H4V28Z" fill="black"/>
<path d="M32 40C36.411 40 40 36.411 40 32C40 27.589 36.411 24 32 24C27.589 24 24 27.589 24 32C24 36.411 27.589 40 32 40ZM32 28C34.206 28 36 29.794 36 32C36 34.206 34.206 36 32 36C29.794 36 28 34.206 28 32C28 29.794 29.794 28 32 28Z" fill="#435DD1"/>
</g>
<defs>
<clipPath id="clip0_6_399">
<rect width="64" height="64" fill="white"/>
</clipPath>
</defs>
</svg>
