<svg width="64" height="64" viewBox="0 0 64 64" fill="none" xmlns="http://www.w3.org/2000/svg">
<g clip-path="url(#clip0_6_389)">
<path d="M62 60H4V52H8C9.104 52 10 51.104 10 50C10 48.896 9.104 48 8 48H4V42C5.104 42 6 41.104 6 40C6 38.896 5.104 38 4 38V32H8C9.104 32 10 31.104 10 30C10 28.896 9.104 28 8 28H4V22C5.104 22 6 21.104 6 20C6 18.896 5.104 18 4 18V12H8C9.104 12 10 11.104 10 10C10 8.896 9.104 8 8 8H4V2C4 0.896 3.104 0 2 0C0.896 0 0 0.896 0 2V60C0 62.206 1.794 64 4 64H62C63.104 64 64 63.104 64 62C64 60.896 63.104 60 62 60Z" fill="black"/>
<path d="M56 34C57.104 34 58 33.104 58 32V22C58 21.869 57.986 21.737 57.961 21.608C57.948 21.548 57.926 21.493 57.909 21.435C57.889 21.368 57.874 21.3 57.847 21.235C57.818 21.167 57.779 21.104 57.743 21.04C57.716 20.99 57.694 20.938 57.663 20.892C57.516 20.672 57.327 20.484 57.107 20.336C57.06 20.305 57.008 20.283 56.959 20.256C56.895 20.221 56.832 20.182 56.764 20.152C56.699 20.126 56.631 20.11 56.564 20.09C56.506 20.073 56.451 20.051 56.391 20.038C56.263 20.014 56.131 20 56 20H46C44.896 20 44 20.896 44 22C44 23.104 44.896 24 46 24H51.172L32 43.172L27.414 38.586C26.633 37.805 25.367 37.805 24.586 38.586L14.586 48.586C13.805 49.367 13.805 50.633 14.586 51.414C14.977 51.805 15.488 52 16 52C16.512 52 17.023 51.805 17.414 51.414L26 42.828L30.586 47.414C31.367 48.195 32.633 48.195 33.414 47.414L54 26.828V32C54 33.104 54.896 34 56 34Z" fill="#435DD1"/>
</g>
<defs>
<clipPath id="clip0_6_389">
<rect width="64" height="64" fill="white"/>
</clipPath>
</defs>
</svg>
