<svg width="64" height="54" viewBox="0 0 64 54" fill="none" xmlns="http://www.w3.org/2000/svg">
<path d="M62 0H2C0.896 0 0 0.896 0 2V52C0 53.104 0.896 54 2 54H62C63.104 54 64 53.104 64 52V2C64 0.896 63.104 0 62 0ZM60 4V12H4V4H60ZM4 50V16H60V50H4Z" fill="black"/>
<path d="M10 10C10.52 10 11.04 9.79 11.41 9.41C11.79 9.04 12 8.52 12 8C12 7.48 11.79 6.96 11.41 6.58C10.67 5.84 9.33 5.84 8.58 6.59C8.21 6.96 8 7.47 8 8C8 8.53 8.21 9.04 8.59 9.42C8.96 9.79 9.479 10 10 10Z" fill="black"/>
<path d="M16 10C16.52 10 17.04 9.79 17.42 9.41C17.79 9.04 18 8.52 18 8C18 7.48 17.79 6.96 17.41 6.58C16.67 5.84 15.33 5.84 14.58 6.59C14.21 6.96 14 7.48 14 8C14 8.52 14.21 9.04 14.59 9.42C14.96 9.79 15.479 10 16 10Z" fill="black"/>
<path d="M22 10C22.53 10 23.04 9.79 23.41 9.41C23.79 9.04 24 8.53 24 8C24 7.48 23.79 6.96 23.41 6.58C22.67 5.84 21.33 5.84 20.58 6.59C20.21 6.96 20 7.48 20 8C20 8.53 20.21 9.04 20.59 9.41C20.96 9.79 21.479 10 22 10Z" fill="black"/>
<path d="M31 20H10C8.896 20 8 20.896 8 22C8 23.104 8.896 24 10 24H31C32.104 24 33 23.104 33 22C33 20.896 32.104 20 31 20Z" fill="#435DD1"/>
<path d="M31 28H10C8.896 28 8 28.896 8 30C8 31.104 8.896 32 10 32H31C32.104 32 33 31.104 33 30C33 28.896 32.104 28 31 28Z" fill="#435DD1"/>
<path d="M31 36H10C8.896 36 8 36.896 8 38C8 39.104 8.896 40 10 40H31C32.104 40 33 39.104 33 38C33 36.896 32.104 36 31 36Z" fill="#435DD1"/>
<path d="M54 20H39C37.896 20 37 20.896 37 22V38C37 39.104 37.896 40 39 40H54C55.104 40 56 39.104 56 38V22C56 20.896 55.104 20 54 20ZM52 36H41V24H52V36Z" fill="#435DD1"/>
</svg>
