<svg width="159" height="159" viewBox="0 0 159 159" fill="none" xmlns="http://www.w3.org/2000/svg">
<circle cx="79.5" cy="79.5" r="79.5" fill="#438AD2"/>
<path d="M55.2897 67.9887C54.9034 66.5568 54.3352 65.2955 53.5852 64.2046C52.8352 63.0909 51.9147 62.1478 50.8238 61.375C49.7329 60.6023 48.4829 60.0228 47.0738 59.6364C45.6647 59.2273 44.1193 59.0227 42.4375 59.0227C39.0511 59.0227 36.1193 59.8409 33.642 61.4773C31.1875 63.1137 29.2897 65.5 27.9488 68.6364C26.6079 71.75 25.9375 75.5341 25.9375 79.9887C25.9375 84.4659 26.5852 88.2841 27.8806 91.4432C29.1761 94.6023 31.0511 97.0114 33.5057 98.6705C35.9602 100.33 38.9375 101.159 42.4375 101.159C45.5284 101.159 48.142 100.659 50.2784 99.6591C52.4375 98.6364 54.0738 97.1932 55.1875 95.3296C56.3011 93.4659 56.8579 91.2727 56.8579 88.75L59.9943 89.125H43.017V76.8182H73.1193V86.0568C73.1193 92.3068 71.7897 97.6591 69.1306 102.114C66.4943 106.568 62.8579 109.989 58.2216 112.375C53.6079 114.761 48.3011 115.955 42.3011 115.955C35.642 115.955 29.7897 114.511 24.7443 111.625C19.6988 108.739 15.767 104.625 12.9488 99.2841C10.1306 93.9205 8.72156 87.5568 8.72156 80.1932C8.72156 74.4659 9.57383 69.3864 11.2784 64.9546C12.9829 60.5 15.3579 56.7273 18.4034 53.6364C21.4716 50.5455 25.017 48.2046 29.0397 46.6137C33.0852 45.0227 37.4375 44.2273 42.0966 44.2273C46.142 44.2273 49.9034 44.8068 53.3806 45.9659C56.8806 47.125 59.9716 48.7614 62.6534 50.875C65.3579 52.9887 67.5511 55.5 69.2329 58.4091C70.9147 61.3182 71.9602 64.5114 72.3693 67.9887H55.2897Z" fill="white"/>
<path d="M142.486 45.1818V115H128.168L100.383 74.7046H99.9403V115H83.0653V45.1818H97.588L125.065 85.4091H125.645V45.1818H142.486Z" fill="white"/>
</svg>
